<svg xmlns:mydata="http://www.w3.org/2000/svg" mydata:contrastcolor="11111f" mydata:template="Contrast" mydata:presentation="2.5" mydata:layouttype="undefined" mydata:specialfontid="undefined" mydata:id1="632" mydata:id2="015" mydata:companyname="fch" mydata:companytagline="fundamental capital hive" version="1.1" xmlns="http://www.w3.org/2000/svg" xmlns:xlink="http://www.w3.org/1999/xlink" viewBox="0 45 550 380"><g fill="#f2cd00" fill-rule="none" stroke="none" stroke-width="1" stroke-linecap="butt" stroke-linejoin="miter" stroke-miterlimit="10" stroke-dasharray="" stroke-dashoffset="0" font-family="none" font-weight="none" font-size="none" text-anchor="none" style="mix-blend-mode: normal"><g data-paper-data="{&quot;isGlobalGroup&quot;:true,&quot;bounds&quot;:{&quot;x&quot;:178.66007278627018,&quot;y&quot;:115,&quot;width&quot;:192.67985442745965,&quot;height&quot;:240}}"><g data-paper-data="{&quot;isSecondaryText&quot;:true}" fill-rule="nonzero"><path d="M183.38893,347.57398v1.31077h-3.01477v1.86029h2.51063v1.31581h-2.51063v2.85849h-1.71408v-7.34535z" data-paper-data="{&quot;glyphName&quot;:&quot;F&quot;,&quot;glyphIndex&quot;:0,&quot;firstGlyphOfWord&quot;:true,&quot;word&quot;:1}"></path><path d="M189.43191,353.57328c0.22854,0 0.43272,-0.03781 0.61253,-0.11343c0.17981,-0.07562 0.33189,-0.18401 0.45625,-0.32517c0.12436,-0.14116 0.2193,-0.31341 0.28484,-0.51675c0.06554,-0.20334 0.09831,-0.4344 0.09831,-0.6932v-4.35075h1.704v4.35075c0,0.45037 -0.0731,0.86376 -0.2193,1.24019c-0.1462,0.37643 -0.35542,0.70076 -0.62766,0.97299c-0.27224,0.27224 -0.60329,0.48398 -0.99316,0.63522c-0.38987,0.15124 -0.82847,0.22686 -1.31581,0.22686c-0.4907,0 -0.93098,-0.07562 -1.32085,-0.22686c-0.38987,-0.15124 -0.72092,-0.36298 -0.99316,-0.63522c-0.27224,-0.27224 -0.48062,-0.59657 -0.62514,-0.97299c-0.14452,-0.37643 -0.21678,-0.78982 -0.21678,-1.24019v-4.35075h1.704v4.34571c0,0.25879 0.03277,0.48986 0.09831,0.6932c0.06554,0.20334 0.16049,0.37643 0.28484,0.51927c0.12436,0.14284 0.27644,0.25207 0.45625,0.32769c0.17981,0.07562 0.38399,0.11343 0.61253,0.11343z" data-paper-data="{&quot;glyphName&quot;:&quot;U&quot;,&quot;glyphIndex&quot;:1,&quot;word&quot;:1}"></path><path d="M196.69493,347.57398c0.07394,0 0.13612,0.00336 0.18653,0.01008c0.05041,0.00672 0.09579,0.01933 0.13612,0.03781c0.04033,0.01849 0.07898,0.04453 0.11595,0.07814c0.03697,0.03361 0.07898,0.07898 0.12604,0.13612l3.48867,4.41125c-0.01344,-0.14116 -0.02353,-0.27812 -0.03025,-0.41088c-0.00672,-0.13276 -0.01008,-0.25795 -0.01008,-0.37559v-3.88694h1.50234v7.34535h-0.88729c-0.13108,0 -0.24199,-0.02017 -0.33273,-0.0605c-0.09075,-0.04033 -0.17813,-0.11427 -0.26215,-0.22182l-3.46346,-4.37596c0.01008,0.12772 0.01849,0.25291 0.02521,0.37559c0.00672,0.12267 0.01008,0.23779 0.01008,0.34534v3.93735h-1.50234v-7.34535z" data-paper-data="{&quot;glyphName&quot;:&quot;N&quot;,&quot;glyphIndex&quot;:2,&quot;word&quot;:1}"></path><path d="M212.18554,351.24414c0,0.53103 -0.09159,1.02089 -0.27476,1.46958c-0.18317,0.44869 -0.44112,0.83688 -0.77386,1.16457c-0.33273,0.32769 -0.73353,0.58312 -1.20238,0.7663c-0.46885,0.18317 -0.98896,0.27476 -1.56032,0.27476h-2.85345v-7.34535h2.85345c0.57136,0 1.09147,0.09243 1.56032,0.27728c0.46885,0.18485 0.86965,0.44028 1.20238,0.7663c0.33273,0.32601 0.59069,0.71336 0.77386,1.16205c0.18317,0.44869 0.27476,0.93686 0.27476,1.46453zM210.44121,351.24414c0,-0.36298 -0.04705,-0.69068 -0.14116,-0.98308c-0.09411,-0.2924 -0.22938,-0.54027 -0.40583,-0.74361c-0.17645,-0.20334 -0.39239,-0.35962 -0.64782,-0.46885c-0.25543,-0.10923 -0.54615,-0.16385 -0.87217,-0.16385h-1.13936v4.72381h1.13936c0.32601,0 0.61673,-0.05462 0.87217,-0.16385c0.25543,-0.10923 0.47137,-0.26551 0.64782,-0.46885c0.17645,-0.20334 0.31173,-0.45121 0.40583,-0.74361c0.09411,-0.2924 0.14116,-0.62178 0.14116,-0.98812z" data-paper-data="{&quot;glyphName&quot;:&quot;D&quot;,&quot;glyphIndex&quot;:3,&quot;word&quot;:1}"></path><path d="M221.63653,354.91934h-1.32085c-0.14788,0 -0.26972,-0.03445 -0.3655,-0.10335c-0.09579,-0.0689 -0.16217,-0.15712 -0.19914,-0.26467l-0.43356,-1.28052h-2.79295l-0.43356,1.28052c-0.03361,0.09411 -0.09915,0.17897 -0.19662,0.25459c-0.09747,0.07562 -0.21678,0.11343 -0.35794,0.11343h-1.33094l2.84336,-7.34535h1.74433zM216.91776,352.11126h2.00649l-0.67555,-2.01153c-0.04369,-0.12772 -0.09495,-0.27812 -0.15376,-0.45121c-0.05882,-0.17309 -0.11679,-0.36046 -0.17393,-0.56212c-0.05378,0.20502 -0.10923,0.39491 -0.16637,0.56968c-0.05714,0.17477 -0.11091,0.32601 -0.16133,0.45373z" data-paper-data="{&quot;glyphName&quot;:&quot;A&quot;,&quot;glyphIndex&quot;:4,&quot;word&quot;:1}"></path><path d="M228.08787,351.56175c0.06722,0.12772 0.13192,0.26047 0.19409,0.39827c0.06218,0.1378 0.12183,0.27896 0.17897,0.42348c0.05714,-0.14788 0.11763,-0.29156 0.18149,-0.43104c0.06386,-0.13948 0.1294,-0.27476 0.19662,-0.40583l1.88549,-3.71049c0.03361,-0.06386 0.06806,-0.11343 0.10335,-0.14872c0.03529,-0.03529 0.07478,-0.06134 0.11847,-0.07814c0.04369,-0.0168 0.09327,-0.02689 0.14872,-0.03025c0.05546,-0.00336 0.12015,-0.00504 0.19409,-0.00504h1.30069v7.34535h-1.50234v-4.22471c0,-0.20502 0.01008,-0.42684 0.03025,-0.66547l-1.94599,3.77603c-0.0605,0.11763 -0.142,0.2067 -0.24451,0.2672c-0.10251,0.0605 -0.2193,0.09075 -0.35038,0.09075h-0.23191c-0.13108,0 -0.24787,-0.03025 -0.35038,-0.09075c-0.10251,-0.0605 -0.18401,-0.14956 -0.24451,-0.2672l-1.95607,-3.78107c0.01344,0.11763 0.02353,0.23443 0.03025,0.35038c0.00672,0.11595 0.01008,0.22266 0.01008,0.32013v4.22471h-1.50234v-7.34535h1.30069c0.07394,0 0.13864,0.00168 0.19409,0.00504c0.05546,0.00336 0.10503,0.01344 0.14872,0.03025c0.04369,0.0168 0.08318,0.04285 0.11847,0.07814c0.03529,0.03529 0.06974,0.08486 0.10335,0.14872z" data-paper-data="{&quot;glyphName&quot;:&quot;M&quot;,&quot;glyphIndex&quot;:5,&quot;word&quot;:1}"></path><path d="M240.62925,347.57398v1.31077h-3.01477v1.71408h2.30897v1.26036h-2.30897v1.74937h3.01477v1.31077h-4.72886v-7.34535z" data-paper-data="{&quot;glyphName&quot;:&quot;E&quot;,&quot;glyphIndex&quot;:6,&quot;word&quot;:1}"></path><path d="M244.59517,347.57398c0.07394,0 0.13612,0.00336 0.18653,0.01008c0.05041,0.00672 0.09579,0.01933 0.13612,0.03781c0.04033,0.01849 0.07898,0.04453 0.11595,0.07814c0.03697,0.03361 0.07898,0.07898 0.12604,0.13612l3.48867,4.41125c-0.01344,-0.14116 -0.02353,-0.27812 -0.03025,-0.41088c-0.00672,-0.13276 -0.01008,-0.25795 -0.01008,-0.37559v-3.88694h1.50234v7.34535h-0.88729c-0.13108,0 -0.24199,-0.02017 -0.33273,-0.0605c-0.09075,-0.04033 -0.17813,-0.11427 -0.26215,-0.22182l-3.46346,-4.37596c0.01008,0.12772 0.01849,0.25291 0.02521,0.37559c0.00672,0.12267 0.01008,0.23779 0.01008,0.34534v3.93735h-1.50234v-7.34535z" data-paper-data="{&quot;glyphName&quot;:&quot;N&quot;,&quot;glyphIndex&quot;:7,&quot;word&quot;:1}"></path><path d="M258.75485,347.57398v1.3511h-2.06698v5.99425h-1.704v-5.99425h-2.06698v-1.3511z" data-paper-data="{&quot;glyphName&quot;:&quot;T&quot;,&quot;glyphIndex&quot;:8,&quot;word&quot;:1}"></path><path d="M267.59079,354.91934h-1.32085c-0.14788,0 -0.26972,-0.03445 -0.3655,-0.10335c-0.09579,-0.0689 -0.16217,-0.15712 -0.19914,-0.26467l-0.43356,-1.28052h-2.79295l-0.43356,1.28052c-0.03361,0.09411 -0.09915,0.17897 -0.19662,0.25459c-0.09747,0.07562 -0.21678,0.11343 -0.35794,0.11343h-1.33094l2.84336,-7.34535h1.74433zM262.87201,352.11126h2.00649l-0.67555,-2.01153c-0.04369,-0.12772 -0.09495,-0.27812 -0.15376,-0.45121c-0.05882,-0.17309 -0.11679,-0.36046 -0.17393,-0.56212c-0.05378,0.20502 -0.10923,0.39491 -0.16637,0.56968c-0.05714,0.17477 -0.11091,0.32601 -0.16133,0.45373z" data-paper-data="{&quot;glyphName&quot;:&quot;A&quot;,&quot;glyphIndex&quot;:9,&quot;word&quot;:1}"></path><path d="M271.99027,353.55815h2.72237v1.36118h-4.42637v-7.34535h1.704z" data-paper-data="{&quot;glyphName&quot;:&quot;L&quot;,&quot;glyphIndex&quot;:10,&quot;lastGlyphOfWord&quot;:true,&quot;word&quot;:1}"></path><path d="M286.602,353.01872c0.04033,0 0.08066,0.00756 0.12099,0.02269c0.04033,0.01512 0.07898,0.04117 0.11595,0.07814l0.67555,0.71084c-0.29576,0.38651 -0.66631,0.67807 -1.11163,0.87469c-0.44533,0.19662 -0.97215,0.29492 -1.58049,0.29492c-0.55792,0 -1.05786,-0.09495 -1.49982,-0.28484c-0.44196,-0.18989 -0.81671,-0.45205 -1.12424,-0.78646c-0.30753,-0.33441 -0.54363,-0.73101 -0.70832,-1.18978c-0.16469,-0.45877 -0.24703,-0.95703 -0.24703,-1.49478c0,-0.54783 0.09411,-1.05114 0.28232,-1.50991c0.18821,-0.45877 0.45121,-0.85452 0.78898,-1.18726c0.33778,-0.33273 0.74193,-0.59153 1.21246,-0.77638c0.47053,-0.18485 0.9898,-0.27728 1.5578,-0.27728c0.2756,0 0.53523,0.02437 0.7789,0.0731c0.24367,0.04873 0.47137,0.11595 0.68311,0.20166c0.21174,0.0857 0.40667,0.18821 0.58481,0.30753c0.17813,0.11931 0.33609,0.25123 0.47389,0.39575l-0.57472,0.77134c-0.03697,0.04705 -0.08066,0.08991 -0.13108,0.12856c-0.05041,0.03865 -0.12099,0.05798 -0.21174,0.05798c-0.0605,0 -0.11763,-0.01344 -0.17141,-0.04033c-0.05378,-0.02689 -0.11091,-0.05966 -0.17141,-0.09831c-0.0605,-0.03865 -0.12688,-0.08066 -0.19914,-0.12604c-0.07226,-0.04537 -0.15796,-0.08738 -0.25711,-0.12604c-0.09915,-0.03865 -0.2151,-0.07142 -0.34786,-0.09831c-0.13276,-0.02689 -0.2882,-0.04033 -0.46633,-0.04033c-0.30921,0 -0.59153,0.05462 -0.84696,0.16385c-0.25543,0.10923 -0.47473,0.26551 -0.65791,0.46885c-0.18317,0.20334 -0.32601,0.44953 -0.42852,0.73857c-0.10251,0.28904 -0.15376,0.61337 -0.15376,0.97299c0,0.37643 0.05125,0.71084 0.15376,1.00324c0.10251,0.2924 0.24199,0.53859 0.41844,0.73857c0.17645,0.19998 0.38231,0.35206 0.61757,0.45625c0.23527,0.10419 0.48734,0.15628 0.75621,0.15628c0.1546,0 0.29576,-0.00756 0.42348,-0.02269c0.12772,-0.01512 0.24619,-0.04117 0.35542,-0.07814c0.10923,-0.03697 0.21342,-0.08486 0.31257,-0.14368c0.09915,-0.05882 0.19914,-0.13192 0.29996,-0.2193c0.04033,-0.03361 0.08402,-0.06134 0.13108,-0.08318c0.04705,-0.02185 0.09579,-0.03277 0.1462,-0.03277z" data-paper-data="{&quot;glyphName&quot;:&quot;C&quot;,&quot;glyphIndex&quot;:11,&quot;firstGlyphOfWord&quot;:true,&quot;word&quot;:2}"></path><path d="M297.22764,354.91934h-1.32085c-0.14788,0 -0.26972,-0.03445 -0.3655,-0.10335c-0.09579,-0.0689 -0.16217,-0.15712 -0.19914,-0.26467l-0.43356,-1.28052h-2.79295l-0.43356,1.28052c-0.03361,0.09411 -0.09915,0.17897 -0.19662,0.25459c-0.09747,0.07562 -0.21678,0.11343 -0.35794,0.11343h-1.33094l2.84336,-7.34535h1.74433zM292.50886,352.11126h2.00649l-0.67555,-2.01153c-0.04369,-0.12772 -0.09495,-0.27812 -0.15376,-0.45121c-0.05882,-0.17309 -0.11679,-0.36046 -0.17393,-0.56212c-0.05378,0.20502 -0.10923,0.39491 -0.16637,0.56968c-0.05714,0.17477 -0.11091,0.32601 -0.16133,0.45373z" data-paper-data="{&quot;glyphName&quot;:&quot;A&quot;,&quot;glyphIndex&quot;:12,&quot;word&quot;:2}"></path><path d="M301.62712,352.46416v2.45517h-1.704v-7.34535h2.59129c0.51759,0 0.96207,0.06134 1.33346,0.18401c0.37138,0.12267 0.67723,0.29156 0.91754,0.50666c0.24031,0.2151 0.4176,0.46885 0.53187,0.76125c0.11427,0.2924 0.17141,0.60833 0.17141,0.94779c0,0.36634 -0.05882,0.70244 -0.17645,1.00828c-0.11763,0.30585 -0.29744,0.568 -0.53943,0.78646c-0.24199,0.21846 -0.54867,0.38903 -0.92006,0.5117c-0.37138,0.12267 -0.81083,0.18401 -1.31833,0.18401zM301.62712,351.1786h0.88729c0.44365,0 0.76294,-0.10587 0.95787,-0.31761c0.19494,-0.21174 0.2924,-0.5075 0.2924,-0.88729c0,-0.16805 -0.02521,-0.32097 -0.07562,-0.45877c-0.05041,-0.1378 -0.12688,-0.25627 -0.22938,-0.35542c-0.10251,-0.09915 -0.23191,-0.17561 -0.38819,-0.22938c-0.15628,-0.05378 -0.34198,-0.08066 -0.55708,-0.08066h-0.88729z" data-paper-data="{&quot;glyphName&quot;:&quot;P&quot;,&quot;glyphIndex&quot;:13,&quot;word&quot;:2}"></path><path d="M310.3219,354.91934h-1.71408v-7.34535h1.71408z" data-paper-data="{&quot;glyphName&quot;:&quot;I&quot;,&quot;glyphIndex&quot;:14,&quot;word&quot;:2}"></path><path d="M319.1175,347.57398v1.3511h-2.06698v5.99425h-1.704v-5.99425h-2.06698v-1.3511z" data-paper-data="{&quot;glyphName&quot;:&quot;T&quot;,&quot;glyphIndex&quot;:15,&quot;word&quot;:2}"></path><path d="M327.95343,354.91934h-1.32085c-0.14788,0 -0.26972,-0.03445 -0.3655,-0.10335c-0.09579,-0.0689 -0.16217,-0.15712 -0.19914,-0.26467l-0.43356,-1.28052h-2.79295l-0.43356,1.28052c-0.03361,0.09411 -0.09915,0.17897 -0.19662,0.25459c-0.09747,0.07562 -0.21678,0.11343 -0.35794,0.11343h-1.33094l2.84336,-7.34535h1.74433zM323.23466,352.11126h2.00649l-0.67555,-2.01153c-0.04369,-0.12772 -0.09495,-0.27812 -0.15376,-0.45121c-0.05882,-0.17309 -0.11679,-0.36046 -0.17393,-0.56212c-0.05378,0.20502 -0.10923,0.39491 -0.16637,0.56968c-0.05714,0.17477 -0.11091,0.32601 -0.16133,0.45373z" data-paper-data="{&quot;glyphName&quot;:&quot;A&quot;,&quot;glyphIndex&quot;:16,&quot;word&quot;:2}"></path><path d="M332.35292,353.55815h2.72237v1.36118h-4.42637v-7.34535h1.704z" data-paper-data="{&quot;glyphName&quot;:&quot;L&quot;,&quot;glyphIndex&quot;:17,&quot;lastGlyphOfWord&quot;:true,&quot;word&quot;:2}"></path><path d="M348.44178,354.91934h-1.71408v-3.10552h-2.98452v3.10552h-1.71408v-7.34535h1.71408v3.07023h2.98452v-3.07023h1.71408z" data-paper-data="{&quot;glyphName&quot;:&quot;H&quot;,&quot;glyphIndex&quot;:18,&quot;firstGlyphOfWord&quot;:true,&quot;word&quot;:3}"></path><path d="M353.61764,354.91934h-1.71408v-7.34535h1.71408z" data-paper-data="{&quot;glyphName&quot;:&quot;I&quot;,&quot;glyphIndex&quot;:19,&quot;word&quot;:3}"></path><path d="M356.47445,347.57398h1.37127c0.14788,0 0.26888,0.03361 0.36298,0.10083c0.09411,0.06722 0.16133,0.15628 0.20166,0.2672l1.42168,3.93231c0.06386,0.17141 0.12856,0.35794 0.19409,0.5596c0.06554,0.20166 0.12688,0.4134 0.18401,0.63522c0.04705,-0.22182 0.10167,-0.43356 0.16385,-0.63522c0.06218,-0.20166 0.12351,-0.38819 0.18401,-0.5596l1.4116,-3.93231c0.03361,-0.09411 0.09915,-0.17897 0.19662,-0.25459c0.09747,-0.07562 0.21678,-0.11343 0.35794,-0.11343h1.38135l-2.94419,7.34535h-1.54268z" data-paper-data="{&quot;glyphName&quot;:&quot;V&quot;,&quot;glyphIndex&quot;:20,&quot;word&quot;:3}"></path><path d="M371.33993,347.57398v1.31077h-3.01477v1.71408h2.30897v1.26036h-2.30897v1.74937h3.01477v1.31077h-4.72886v-7.34535z" data-paper-data="{&quot;glyphName&quot;:&quot;E&quot;,&quot;glyphIndex&quot;:21,&quot;lastGlyphOfWord&quot;:true,&quot;word&quot;:3}"></path></g><g data-paper-data="{&quot;isPrimaryText&quot;:true}" fill-rule="nonzero"><path d="M181.41219,297.65136h31.88576v-2.75291h-31.88576v-23.79609h44.30735v-2.75211h-47.05947v55.84933h2.75211z" data-paper-data="{&quot;glyphName&quot;:&quot;F&quot;,&quot;glyphIndex&quot;:0,&quot;firstGlyphOfWord&quot;:true,&quot;word&quot;:1}" fill="#ffffff"></path><path d="M253.54851,316.02138c2.66598,2.66519 5.77298,4.72907 9.23725,6.13344c3.34624,1.35732 6.88148,2.04475 10.50843,2.04475c3.62695,0 7.16219,-0.68823 10.50843,-2.04475c3.46427,-1.40516 6.57206,-3.46905 9.23725,-6.13504l0.01834,-0.01834l-1.92752,-1.92752l-0.01834,-0.01914l-0.01834,0.01914c-9.81542,9.81382 -25.78422,9.81462 -35.59964,0.0008c-9.81462,-9.81542 -9.81462,-25.78581 0,-35.60044c9.81462,-9.81382 25.78502,-9.81382 35.59964,0.0008l0.01834,0.01914l1.92752,-1.92831l0.01834,-0.01834l-0.01834,-0.01834c-2.66519,-2.66598 -5.77298,-4.72987 -9.23725,-6.13424c-3.34624,-1.35732 -6.88148,-2.04475 -10.50843,-2.04554h-0.0008c-3.62695,0 -7.16219,0.68823 -10.50763,2.04475c-3.46427,1.40437 -6.57206,3.46825 -9.23725,6.13424c-2.66519,2.66519 -4.72907,5.77378 -6.13424,9.23724c-1.35652,3.34624 -2.04475,6.88228 -2.04475,10.50843c0,3.62695 0.68823,7.16219 2.04475,10.50843c1.40516,3.46427 3.46905,6.57285 6.13424,9.23884z" data-paper-data="{&quot;glyphName&quot;:&quot;C&quot;,&quot;glyphIndex&quot;:1,&quot;word&quot;:1}" fill="#ffffff"></path><path d="M327.03257,297.65136h41.55524v26.54821h2.75211v-55.84933h-2.75211v26.54821h-41.55524v-26.54821h-2.75211v55.84933h2.75211z" data-paper-data="{&quot;glyphName&quot;:&quot;H&quot;,&quot;glyphIndex&quot;:2,&quot;lastGlyphOfWord&quot;:true,&quot;word&quot;:1}" fill="#ffffff"></path></g><g data-paper-data="{&quot;fillRule&quot;:&quot;evenodd&quot;,&quot;fillRuleOriginal&quot;:&quot;evenodd&quot;,&quot;isIcon&quot;:true,&quot;iconStyle&quot;:&quot;standalone&quot;,&quot;selectedEffects&quot;:{&quot;container&quot;:&quot;&quot;,&quot;transformation&quot;:&quot;&quot;,&quot;pattern&quot;:&quot;&quot;},&quot;bounds&quot;:{&quot;x&quot;:217.53748249288253,&quot;y&quot;:115,&quot;width&quot;:114.92503501423494,&quot;height&quot;:114.92503501423494},&quot;iconType&quot;:&quot;icon&quot;,&quot;rawIconId&quot;:&quot;1450274&quot;,&quot;isDetailed&quot;:false,&quot;suitableAsStandaloneIcon&quot;:true}" fill-rule="evenodd"><path d="M217.53748,172.46252c0,-31.73566 25.72686,-57.46252 57.46252,-57.46252c31.70699,0.06916 57.39336,25.75553 57.46252,57.46252c0,31.73566 -25.72686,57.46252 -57.46252,57.46252c-31.73566,0 -57.46252,-25.72686 -57.46252,-57.46252zM225.08192,172.63012c0.02313,27.55259 22.36537,49.87621 49.91808,49.87633v-0.12574c27.54039,-0.06916 49.84905,-22.37782 49.91821,-49.91821c-0.06941,-27.55259 -22.44923,-49.83861 -50.00182,-49.79234c-27.55259,0.04615 -49.85747,22.40724 -49.83446,49.95995zM236.14679,172.46252c0,-21.45804 17.39517,-38.85321 38.85321,-38.85321c21.45804,0 38.85321,17.39517 38.85321,38.85321c0,21.45804 -17.39517,38.85321 -38.85321,38.85321c-21.45804,0 -38.85321,-17.39517 -38.85321,-38.85321zM243.6911,172.46252c0,17.29144 14.01746,31.3089 31.3089,31.3089c8.30365,0 16.26717,-3.29862 22.13879,-9.17011c5.87149,-5.87161 9.17011,-13.83514 9.17011,-22.13879c0,-17.29144 -14.01746,-31.3089 -31.3089,-31.3089c-17.29144,0 -31.3089,14.01746 -31.3089,31.3089zM275,151.2127c-11.73593,0 -21.24982,9.51388 -21.24982,21.24982c0,11.73593 9.51388,21.24982 21.24982,21.24982c11.73593,0 21.24982,-9.51388 21.24982,-21.24982c0,-5.63585 -2.23877,-11.04073 -6.22393,-15.02589c-3.98516,-3.98516 -9.39003,-6.22393 -15.02589,-6.22393zM275,186.16802c-7.56934,0 -13.7055,-6.13617 -13.7055,-13.7055c0,-7.56934 6.13617,-13.7055 13.7055,-13.7055c7.56934,0 13.7055,6.13617 13.7055,13.7055c0,7.56934 -6.13617,13.7055 -13.7055,13.7055z" data-paper-data="{&quot;isPathIcon&quot;:true}"></path></g></g></g><g class="watermark-group" style="opacity:0.040000010281801224"><path class="watermark-path" d="M129.52,370.3a11.88,11.88,0,0,1,2.58,5.58,12,12,0,0,1,.11,3,11.81,11.81,0,0,1-.64,2.93,12.34,12.34,0,0,1-1.41,2.72,11.65,11.65,0,0,1-2.13,2.32,12,12,0,0,1-2.64,1.69,13,13,0,0,1-2.91.9,12.47,12.47,0,0,1-3,.12,12.17,12.17,0,0,1-2.93-.64,11.8,11.8,0,0,1-2.72-1.38,12.19,12.19,0,0,1-4-4.79,11.85,11.85,0,0,1-.89-2.92,12.14,12.14,0,0,1-.13-3,11.54,11.54,0,0,1,.64-2.92,11.67,11.67,0,0,1,3.5-5,11.44,11.44,0,0,1,2.67-1.69,11.64,11.64,0,0,1,2.92-.91,10.71,10.71,0,0,1,3-.12,11.68,11.68,0,0,1,5.66,2,11.7,11.7,0,0,1,2.34,2.12m-1.4,8.76a13,13,0,0,1-1.22,2.32,9.68,9.68,0,0,1-1.81,2,7.44,7.44,0,0,1-2.38,1.37,6.17,6.17,0,0,1-5.11-.46,8.73,8.73,0,0,1-3.85-4.58,6.69,6.69,0,0,1-.34-2.66,6.09,6.09,0,0,1,.77-2.47,7.15,7.15,0,0,1,1.75-2.11,9.58,9.58,0,0,1,1.09-.81,8.23,8.23,0,0,1,1.12-.63,8.14,8.14,0,0,1,1.19-.46,12.71,12.71,0,0,1,1.32-.37l2,2.38a12.83,12.83,0,0,0-1.56.17,7.86,7.86,0,0,0-1.23.32,4.5,4.5,0,0,0-1,.49,6.41,6.41,0,0,0-.93.67,4.49,4.49,0,0,0-1.15,1.39,3.87,3.87,0,0,0-.45,1.58,4.12,4.12,0,0,0,.26,1.63,6.11,6.11,0,0,0,2.36,2.82,4.43,4.43,0,0,0,1.57.53,3.91,3.91,0,0,0,1.62-.17,4.71,4.71,0,0,0,1.57-.89,10.5,10.5,0,0,0,.83-.79,5.71,5.71,0,0,0,.65-.93,10.13,10.13,0,0,0,.54-1.14,12.24,12.24,0,0,0,.44-1.49l2,2.33m-14.46,4.55a8.86,8.86,0,0,0,2.78,2.22,9,9,0,0,0,3.29.94,9.15,9.15,0,0,0,3.39-.37,8.68,8.68,0,0,0,3.11-1.69,8.8,8.8,0,0,0,2.22-2.78,9.15,9.15,0,0,0,1-3.29,8.95,8.95,0,0,0-4.83-8.76,9,9,0,0,0-6.73-.57,9,9,0,0,0-5.33,4.47,8.94,8.94,0,0,0-.57,6.71,8.76,8.76,0,0,0,1.7,3.12"></path><path class="watermark-path" d="M147,349c-.48.12-1.09.31-1.82.57a24.37,24.37,0,0,0-2.4,1A28.35,28.35,0,0,0,140,352a20.72,20.72,0,0,0-2.71,1.94c-.7.59-1.28,1.11-1.74,1.57a15.07,15.07,0,0,0-1.1,1.22,4.09,4.09,0,0,0-.59.92,2.32,2.32,0,0,0-.22.64,1.16,1.16,0,0,0,0,.47,1.83,1.83,0,0,0,.18.29,1.15,1.15,0,0,0,1,.37,5.54,5.54,0,0,0,1.51-.38q.87-.35,1.95-.9l2.26-1.18q1.2-.65,2.49-1.29c.87-.44,1.73-.83,2.59-1.17a18.94,18.94,0,0,1,2.6-.81,9.27,9.27,0,0,1,2.46-.29,6.25,6.25,0,0,1,2.24.49,5.12,5.12,0,0,1,1.89,1.47,6.35,6.35,0,0,1,1.41,2.61,6,6,0,0,1,.09,2.6,8.3,8.3,0,0,1-.9,2.52,17.79,17.79,0,0,1-1.62,2.37,23.92,23.92,0,0,1-2,2.15c-.72.67-1.41,1.29-2.09,1.87a33.79,33.79,0,0,1-5.33,3.7,32.29,32.29,0,0,1-4.91,2.28l-3.61-4.3a21.38,21.38,0,0,0,5.39-1.87,27.2,27.2,0,0,0,5.4-3.56,21.59,21.59,0,0,0,2.38-2.27,8.67,8.67,0,0,0,1.18-1.7,2.32,2.32,0,0,0,.27-1.19,1.34,1.34,0,0,0-.28-.74,1.21,1.21,0,0,0-1-.42,4.32,4.32,0,0,0-1.55.34,15.77,15.77,0,0,0-2,.88c-.72.37-1.48.77-2.27,1.21l-2.45,1.3c-.85.45-1.7.85-2.56,1.21a22.37,22.37,0,0,1-2.54.86,10,10,0,0,1-2.43.32,5.76,5.76,0,0,1-2.2-.45,5,5,0,0,1-1.89-1.45,6.12,6.12,0,0,1-1.31-2.41,6,6,0,0,1-.1-2.41,8.28,8.28,0,0,1,.81-2.38,14.06,14.06,0,0,1,1.49-2.24,22.37,22.37,0,0,1,1.85-2.05q1-1,2-1.77c.7-.59,1.44-1.15,2.23-1.7s1.62-1.06,2.44-1.53,1.63-.91,2.43-1.3,1.58-.75,2.3-1L147,349"></path><path class="watermark-path" d="M186.76,337.57l-10.6-12.63,3.92,18.24-4.66,3.91-17.27-7,10.6,12.63-4.86,4.07-15.09-18,6.59-5.54,18.69,7.52-4.15-19.71,6.57-5.52,15.09,18-4.83,4.05"></path><path class="watermark-path" d="M208.84,313.24l-10,8.42,1.16,4.82L194.56,331l-5.68-25.89,5.42-4.55,24.51,10.09-5.42,4.55-4.55-2m-11.23,3.45,6.57-5.52-8.83-3.87,2.26,9.39"></path><path class="watermark-path" d="M227.49,281.38c-.48.12-1.09.31-1.82.57a24.37,24.37,0,0,0-2.4,1,26.11,26.11,0,0,0-2.7,1.47,20.72,20.72,0,0,0-2.71,1.94c-.7.59-1.28,1.11-1.74,1.57a13.39,13.39,0,0,0-1.1,1.22,4.29,4.29,0,0,0-.59.91,2.48,2.48,0,0,0-.22.65,1.16,1.16,0,0,0,0,.47,1.83,1.83,0,0,0,.18.29,1.15,1.15,0,0,0,1,.37,5.54,5.54,0,0,0,1.51-.38q.87-.34,2-.9l2.26-1.18q1.2-.64,2.49-1.29c.87-.44,1.73-.83,2.59-1.17a18.94,18.94,0,0,1,2.6-.81,9.27,9.27,0,0,1,2.46-.29,6.08,6.08,0,0,1,2.24.49,5.09,5.09,0,0,1,1.89,1.46,6.47,6.47,0,0,1,1.41,2.61,6.07,6.07,0,0,1,.09,2.61,8.3,8.3,0,0,1-.9,2.52,16.32,16.32,0,0,1-1.63,2.36,21.41,21.41,0,0,1-2,2.16c-.72.67-1.41,1.29-2.1,1.86a33.36,33.36,0,0,1-5.32,3.71,31.92,31.92,0,0,1-4.92,2.28l-3.6-4.3a21.38,21.38,0,0,0,5.39-1.87,27.2,27.2,0,0,0,5.4-3.56,21.59,21.59,0,0,0,2.38-2.27,8.67,8.67,0,0,0,1.18-1.7A2.32,2.32,0,0,0,231,293a1.34,1.34,0,0,0-.28-.74,1.21,1.21,0,0,0-1-.42,4.32,4.32,0,0,0-1.55.34,16.54,16.54,0,0,0-2,.88c-.71.37-1.47.77-2.26,1.21l-2.46,1.3c-.84.44-1.7.85-2.55,1.21a24.53,24.53,0,0,1-2.54.86A10,10,0,0,1,214,298a5.76,5.76,0,0,1-2.2-.45,5,5,0,0,1-1.89-1.45,6.12,6.12,0,0,1-1.31-2.41,5.78,5.78,0,0,1-.1-2.41,8,8,0,0,1,.81-2.38,14.61,14.61,0,0,1,1.49-2.25,22.26,22.26,0,0,1,1.85-2q1-1,2-1.77c.7-.59,1.44-1.15,2.23-1.7s1.62-1.06,2.44-1.53,1.63-.91,2.43-1.31,1.58-.74,2.3-1l3.5,4.16"></path><path class="watermark-path" d="M261.64,274.74l-6.29-7.5L243,277.61l6.3,7.5-4.86,4.07-15.09-18,4.85-4.08,5.49,6.55L252,263.3l-5.49-6.55,4.86-4.07,15.09,18-4.86,4.08"></path><path class="watermark-path" d="M272.18,265.9l-15.09-18,4.86-4.08,15.09,18-4.86,4.08"></path><path class="watermark-path" d="M299.65,242.85l-22.51-2.18L287.51,253l-4.85,4.08-15.1-18,5.28-4.43,22.56,2.22L285,224.5l4.83-4.06,15.09,18-5.26,4.42"></path><path class="watermark-path" d="M306.68,205.52a31.88,31.88,0,0,1,5.29-3.66,34.48,34.48,0,0,1,5.14-2.35l3.69,4.39a20.77,20.77,0,0,0-2.37.61,20.47,20.47,0,0,0-2.61,1,25.12,25.12,0,0,0-2.76,1.49,23.9,23.9,0,0,0-2.8,2,20.42,20.42,0,0,0-2.8,2.77,12.77,12.77,0,0,0-1.64,2.52,7,7,0,0,0-.68,2.24,6,6,0,0,0,.66,3.64,8.16,8.16,0,0,0,.94,1.38,9.12,9.12,0,0,0,1.08,1.07,6.39,6.39,0,0,0,1.47.91,6.73,6.73,0,0,0,1.88.48,6.54,6.54,0,0,0,2.28-.18,11.67,11.67,0,0,0,2.74-1.07,19.38,19.38,0,0,0,3.18-2.22c.57-.48,1.06-.92,1.46-1.31a14.57,14.57,0,0,0,1-1.13,11.46,11.46,0,0,0,.81-1.05l.74-1.09-1.82-2.17-5.45,4.57-3.31-3.94,10.31-8.65,7.71,9.19a29,29,0,0,1-1.67,2.43q-1,1.26-2.1,2.52c-.74.84-1.5,1.65-2.3,2.44s-1.58,1.5-2.33,2.14a31,31,0,0,1-3.59,2.61,22.55,22.55,0,0,1-3.64,1.83,15.64,15.64,0,0,1-3.63.89,10.72,10.72,0,0,1-3.49-.15,10.45,10.45,0,0,1-3.28-1.33,12.54,12.54,0,0,1-3-2.67,12,12,0,0,1-2.08-3.44,10.45,10.45,0,0,1-.71-3.5,11.14,11.14,0,0,1,.51-3.51,15.72,15.72,0,0,1,1.56-3.43,21.62,21.62,0,0,1,2.42-3.28,30.3,30.3,0,0,1,3.15-3"></path><path class="watermark-path" d="M336.91,211.59l-15.1-18,4.86-4.08,11.79,14,13.13-11,3.31,3.94-18,15.1"></path><path class="watermark-path" d="M374.54,164.71a12.28,12.28,0,0,1,2.59,4.81,10.44,10.44,0,0,1,0,5,14.62,14.62,0,0,1-2.33,5,25.55,25.55,0,0,1-4.56,4.85,26.07,26.07,0,0,1-5.6,3.67,14.79,14.79,0,0,1-5.38,1.43,10.43,10.43,0,0,1-4.94-.89,13.24,13.24,0,0,1-6.87-8.18,10.48,10.48,0,0,1,0-5,14.51,14.51,0,0,1,2.36-5,25.23,25.23,0,0,1,4.57-4.89,25,25,0,0,1,5.59-3.64,14.45,14.45,0,0,1,5.35-1.43,10.31,10.31,0,0,1,4.93.92,12.22,12.22,0,0,1,4.28,3.38m-4.91,4.11a8.36,8.36,0,0,0-2-1.72,5.5,5.5,0,0,0-2.65-.85,7.72,7.72,0,0,0-3.32.57,14.49,14.49,0,0,0-4,2.52,16.72,16.72,0,0,0-2.38,2.4,10.15,10.15,0,0,0-1.39,2.24,6.71,6.71,0,0,0-.56,2.1,5.69,5.69,0,0,0,.1,1.9,6.21,6.21,0,0,0,.61,1.69,9.85,9.85,0,0,0,1,1.44,10.48,10.48,0,0,0,1.26,1.23,6.67,6.67,0,0,0,1.57.92,6.1,6.1,0,0,0,1.85.41,6.8,6.8,0,0,0,2.15-.2,11.06,11.06,0,0,0,2.45-1,17.67,17.67,0,0,0,2.77-1.94,14.39,14.39,0,0,0,3.18-3.52,7.74,7.74,0,0,0,1.14-3.17,5.54,5.54,0,0,0-.37-2.74,8.52,8.52,0,0,0-1.36-2.3"></path><path class="watermark-path" d="M382.66,141.76A32.3,32.3,0,0,1,388,138.1a34.12,34.12,0,0,1,5.15-2.35l3.69,4.4a19.62,19.62,0,0,0-2.37.6,22.08,22.08,0,0,0-2.61,1,26,26,0,0,0-2.77,1.49,23.9,23.9,0,0,0-2.8,2,21,21,0,0,0-2.8,2.78,13.19,13.19,0,0,0-1.64,2.51,7.29,7.29,0,0,0-.68,2.24,6.36,6.36,0,0,0,.06,2,5.8,5.8,0,0,0,.61,1.68,8.12,8.12,0,0,0,.93,1.38,9.16,9.16,0,0,0,1.08,1.08,6.56,6.56,0,0,0,1.48.9,6,6,0,0,0,1.87.48,6.76,6.76,0,0,0,2.28-.17,12,12,0,0,0,2.74-1.08,18.57,18.57,0,0,0,3.18-2.22c.58-.48,1.06-.92,1.46-1.31s.75-.77,1.05-1.12.57-.72.81-1.06l.73-1.09-1.82-2.17-5.45,4.57-3.3-3.94,10.3-8.65,7.71,9.19a29,29,0,0,1-1.67,2.43q-1,1.26-2.1,2.52c-.73.84-1.5,1.66-2.3,2.44s-1.57,1.5-2.33,2.14a31,31,0,0,1-3.59,2.61,22.15,22.15,0,0,1-3.64,1.83,15.56,15.56,0,0,1-3.62.89,11,11,0,0,1-3.49-.14,10.84,10.84,0,0,1-3.28-1.33,12.82,12.82,0,0,1-3-2.68,12.12,12.12,0,0,1-2.08-3.43A10.71,10.71,0,0,1,375,155a11.18,11.18,0,0,1,.51-3.51,15.51,15.51,0,0,1,1.57-3.43,21.44,21.44,0,0,1,2.42-3.28,30.19,30.19,0,0,1,3.14-3"></path><path class="watermark-path" d="M428.63,119.31a12.26,12.26,0,0,1,2.59,4.82,10.44,10.44,0,0,1,0,5,14.53,14.53,0,0,1-2.34,5,25.29,25.29,0,0,1-4.56,4.86,26,26,0,0,1-5.59,3.67,14.84,14.84,0,0,1-5.38,1.43,10.61,10.61,0,0,1-4.95-.89,12.15,12.15,0,0,1-4.3-3.37,12,12,0,0,1-2.56-4.81,10.48,10.48,0,0,1,0-5,14.39,14.39,0,0,1,2.35-5,27.89,27.89,0,0,1,10.16-8.53,14.49,14.49,0,0,1,5.36-1.43,10.27,10.27,0,0,1,4.92.92,12.21,12.21,0,0,1,4.28,3.37m-4.91,4.12a8.17,8.17,0,0,0-2-1.72,5.58,5.58,0,0,0-2.65-.86,7.86,7.86,0,0,0-3.31.58,14.49,14.49,0,0,0-4,2.52,16.21,16.21,0,0,0-2.38,2.4,9.85,9.85,0,0,0-1.4,2.24,7,7,0,0,0-.56,2.1,6,6,0,0,0,.1,1.9,6.23,6.23,0,0,0,.62,1.69,8.49,8.49,0,0,0,1,1.44,9.18,9.18,0,0,0,1.26,1.23,6.67,6.67,0,0,0,1.57.92,6,6,0,0,0,1.84.41,6.86,6.86,0,0,0,2.16-.2,11.26,11.26,0,0,0,2.45-1,17.62,17.62,0,0,0,2.76-1.94,14.67,14.67,0,0,0,3.19-3.52,7.71,7.71,0,0,0,1.13-3.17,5.53,5.53,0,0,0-.36-2.74,8.55,8.55,0,0,0-1.37-2.3"></path></g></svg>